<svg xmlns:xlink="http://www.w3.org/1999/xlink"  xmlns="http://www.w3.org/2000/svg" width="27" height="27" viewBox="0 0 27 27" fill="none">
<path d="M8.99966 17.1429C8.99966 17.6162 9.3838 18.0002 9.85711 18.0003H18.0003V26.1436C18.0001 26.6168 17.6161 27 17.1429 27H8.99966C4.0293 26.9998 8.24237e-05 22.9707 0 18.0003C0 13.185 3.7817 9.25269 8.53719 9.01176L8.99966 8.99966V17.1429ZM18.0003 0C22.9708 5.96523e-05 26.9998 4.02928 27 8.99966C27 13.8148 23.219 17.747 18.4638 17.9882L18.0003 18.0003V9.85711C18.0003 9.38378 17.6162 8.99966 17.1429 8.99966H8.99966V0.857447C8.99966 0.384112 9.3838 9.31994e-05 9.85711 0H18.0003Z" fill="#CB3CFF"/>
</svg>