<svg width="258" height="28" viewBox="0 0 258 28" fill="none" xmlns="http://www.w3.org/2000/svg">
<g clip-path="url(#clip0_1_570)">
<g opacity="0.8">
<path d="M250.5 9.00781L245.5 14.0078L250.5 19.0078" stroke="#AEB9E1" stroke-width="1.33333" stroke-linecap="round" stroke-linejoin="round"/>
</g>
<path d="M17.7227 17.3394C17.7227 17.7981 18.095 18.1703 18.5537 18.1704H26.4463V26.063C26.4461 26.5216 26.0739 26.8931 25.6152 26.8931H17.7227C12.9053 26.8928 9.00008 22.9878 9 18.1704C9 13.5033 12.6653 9.69201 17.2744 9.4585L17.7227 9.44678V17.3394ZM26.4463 0.724121C31.2637 0.724179 35.1687 4.62939 35.1689 9.44678C35.1689 14.1137 31.5043 17.9248 26.8955 18.1587L26.4463 18.1704V10.2778C26.4462 9.81907 26.074 9.44678 25.6152 9.44678H17.7227V1.55518C17.7227 1.09641 18.095 0.724211 18.5537 0.724121H26.4463Z" fill="#CB3CFF"/>
<path d="M18.4603 0.724121C18.0532 0.724121 17.7231 1.05416 17.7231 1.46128L17.7231 9.4472H25.709C26.1162 9.4472 26.4462 9.77723 26.4462 10.1844L26.4462 18.1703C31.2638 18.1703 35.1693 14.2648 35.1693 9.4472C35.1693 4.62957 31.2638 0.724121 26.4462 0.724121H18.4603Z" fill="#00C2FF"/>
<path d="M47.66 6.84875C49.1267 6.84875 50.4133 7.13541 51.52 7.70875C52.64 8.28208 53.5 9.10208 54.1 10.1687C54.7133 11.2221 55.02 12.4487 55.02 13.8487C55.02 15.2487 54.7133 16.4754 54.1 17.5287C53.5 18.5687 52.64 19.3754 51.52 19.9487C50.4133 20.5221 49.1267 20.8087 47.66 20.8087H42.78V6.84875H47.66ZM47.56 18.4287C49.0267 18.4287 50.16 18.0287 50.96 17.2287C51.76 16.4287 52.16 15.3021 52.16 13.8487C52.16 12.3954 51.76 11.2621 50.96 10.4487C50.16 9.62208 49.0267 9.20875 47.56 9.20875H45.58V18.4287H47.56ZM56.3959 15.2287C56.3959 14.1087 56.6159 13.1154 57.0559 12.2487C57.5093 11.3821 58.1159 10.7154 58.8759 10.2487C59.6493 9.78208 60.5093 9.54875 61.4559 9.54875C62.2826 9.54875 63.0026 9.71541 63.6159 10.0487C64.2426 10.3821 64.7426 10.8021 65.1159 11.3087V9.72875H67.9359V20.8087H65.1159V19.1887C64.7559 19.7087 64.2559 20.1421 63.6159 20.4887C62.9893 20.8221 62.2626 20.9887 61.4359 20.9887C60.5026 20.9887 59.6493 20.7487 58.8759 20.2687C58.1159 19.7887 57.5093 19.1154 57.0559 18.2487C56.6159 17.3687 56.3959 16.3621 56.3959 15.2287ZM65.1159 15.2687C65.1159 14.5887 64.9826 14.0087 64.7159 13.5287C64.4493 13.0354 64.0893 12.6621 63.6359 12.4087C63.1826 12.1421 62.6959 12.0087 62.1759 12.0087C61.6559 12.0087 61.1759 12.1354 60.7359 12.3887C60.2959 12.6421 59.9359 13.0154 59.6559 13.5087C59.3893 13.9887 59.2559 14.5621 59.2559 15.2287C59.2559 15.8954 59.3893 16.4821 59.6559 16.9887C59.9359 17.4821 60.2959 17.8621 60.7359 18.1287C61.1893 18.3954 61.6693 18.5287 62.1759 18.5287C62.6959 18.5287 63.1826 18.4021 63.6359 18.1487C64.0893 17.8821 64.4493 17.5087 64.7159 17.0287C64.9826 16.5354 65.1159 15.9487 65.1159 15.2687ZM74.9106 20.9887C74.004 20.9887 73.1906 20.8287 72.4706 20.5087C71.7506 20.1754 71.1773 19.7287 70.7506 19.1687C70.3373 18.6087 70.1106 17.9887 70.0706 17.3087H72.8906C72.944 17.7354 73.1506 18.0887 73.5106 18.3687C73.884 18.6487 74.344 18.7887 74.8906 18.7887C75.424 18.7887 75.8373 18.6821 76.1306 18.4687C76.4373 18.2554 76.5906 17.9821 76.5906 17.6487C76.5906 17.2887 76.404 17.0221 76.0306 16.8487C75.6706 16.6621 75.0906 16.4621 74.2906 16.2487C73.464 16.0487 72.784 15.8421 72.2506 15.6287C71.7306 15.4154 71.2773 15.0887 70.8906 14.6487C70.5173 14.2087 70.3306 13.6154 70.3306 12.8687C70.3306 12.2554 70.504 11.6954 70.8506 11.1887C71.2106 10.6821 71.7173 10.2821 72.3706 9.98875C73.0373 9.69541 73.8173 9.54875 74.7106 9.54875C76.0306 9.54875 77.084 9.88208 77.8706 10.5487C78.6573 11.2021 79.0906 12.0887 79.1706 13.2087H76.4906C76.4506 12.7687 76.264 12.4221 75.9306 12.1687C75.6106 11.9021 75.1773 11.7687 74.6306 11.7687C74.124 11.7687 73.7306 11.8621 73.4506 12.0487C73.184 12.2354 73.0506 12.4954 73.0506 12.8287C73.0506 13.2021 73.2373 13.4887 73.6106 13.6887C73.984 13.8754 74.564 14.0687 75.3506 14.2687C76.1506 14.4687 76.8106 14.6754 77.3306 14.8887C77.8506 15.1021 78.2973 15.4354 78.6706 15.8887C79.0573 16.3287 79.2573 16.9154 79.2706 17.6487C79.2706 18.2887 79.0906 18.8621 78.7306 19.3687C78.384 19.8754 77.8773 20.2754 77.2106 20.5687C76.5573 20.8487 75.7906 20.9887 74.9106 20.9887ZM87.8091 9.56875C88.6491 9.56875 89.3957 9.75541 90.0491 10.1287C90.7024 10.4887 91.2091 11.0287 91.5691 11.7487C91.9424 12.4554 92.1291 13.3087 92.1291 14.3087V20.8087H89.3291V14.6887C89.3291 13.8087 89.1091 13.1354 88.6691 12.6687C88.2291 12.1887 87.6291 11.9487 86.8691 11.9487C86.0957 11.9487 85.4824 12.1887 85.0291 12.6687C84.5891 13.1354 84.3691 13.8087 84.3691 14.6887V20.8087H81.5691V6.00875H84.3691V11.1087C84.7291 10.6287 85.2091 10.2554 85.8091 9.98875C86.4091 9.70875 87.0757 9.56875 87.8091 9.56875ZM94.0717 15.2287C94.0717 14.1087 94.2917 13.1154 94.7317 12.2487C95.185 11.3821 95.7984 10.7154 96.5717 10.2487C97.345 9.78208 98.205 9.54875 99.1517 9.54875C99.8717 9.54875 100.558 9.70875 101.212 10.0287C101.865 10.3354 102.385 10.7487 102.772 11.2687V6.00875H105.612V20.8087H102.772V19.1687C102.425 19.7154 101.938 20.1554 101.312 20.4887C100.685 20.8221 99.9584 20.9887 99.1317 20.9887C98.1984 20.9887 97.345 20.7487 96.5717 20.2687C95.7984 19.7887 95.185 19.1154 94.7317 18.2487C94.2917 17.3687 94.0717 16.3621 94.0717 15.2287ZM102.792 15.2687C102.792 14.5887 102.658 14.0087 102.392 13.5287C102.125 13.0354 101.765 12.6621 101.312 12.4087C100.858 12.1421 100.372 12.0087 99.8517 12.0087C99.3317 12.0087 98.8517 12.1354 98.4117 12.3887C97.9717 12.6421 97.6117 13.0154 97.3317 13.5087C97.065 13.9887 96.9317 14.5621 96.9317 15.2287C96.9317 15.8954 97.065 16.4821 97.3317 16.9887C97.6117 17.4821 97.9717 17.8621 98.4117 18.1287C98.865 18.3954 99.345 18.5287 99.8517 18.5287C100.372 18.5287 100.858 18.4021 101.312 18.1487C101.765 17.8821 102.125 17.5087 102.392 17.0287C102.658 16.5354 102.792 15.9487 102.792 15.2687ZM107.626 15.2287C107.626 14.1087 107.846 13.1154 108.286 12.2487C108.74 11.3821 109.346 10.7154 110.106 10.2487C110.88 9.78208 111.74 9.54875 112.686 9.54875C113.513 9.54875 114.233 9.71541 114.846 10.0487C115.473 10.3821 115.973 10.8021 116.346 11.3087V9.72875H119.166V20.8087H116.346V19.1887C115.986 19.7087 115.486 20.1421 114.846 20.4887C114.22 20.8221 113.493 20.9887 112.666 20.9887C111.733 20.9887 110.88 20.7487 110.106 20.2687C109.346 19.7887 108.74 19.1154 108.286 18.2487C107.846 17.3687 107.626 16.3621 107.626 15.2287ZM116.346 15.2687C116.346 14.5887 116.213 14.0087 115.946 13.5287C115.68 13.0354 115.32 12.6621 114.866 12.4087C114.413 12.1421 113.926 12.0087 113.406 12.0087C112.886 12.0087 112.406 12.1354 111.966 12.3887C111.526 12.6421 111.166 13.0154 110.886 13.5087C110.62 13.9887 110.486 14.5621 110.486 15.2287C110.486 15.8954 110.62 16.4821 110.886 16.9887C111.166 17.4821 111.526 17.8621 111.966 18.1287C112.42 18.3954 112.9 18.5287 113.406 18.5287C113.926 18.5287 114.413 18.4021 114.866 18.1487C115.32 17.8821 115.68 17.5087 115.946 17.0287C116.213 16.5354 116.346 15.9487 116.346 15.2687ZM124.701 11.4487C125.061 10.8621 125.528 10.4021 126.101 10.0687C126.688 9.73541 127.354 9.56875 128.101 9.56875V12.5087H127.361C126.481 12.5087 125.814 12.7154 125.361 13.1287C124.921 13.5421 124.701 14.2621 124.701 15.2887V20.8087H121.901V9.72875H124.701V11.4487ZM136.547 20.8087L132.787 16.0887V20.8087H129.987V6.00875H132.787V14.4287L136.507 9.72875H140.147L135.267 15.2887L140.187 20.8087H136.547ZM154.792 20.8087L151.772 16.1087L149.032 20.8087H145.872L150.272 13.7687L145.812 6.84875H149.032L152.052 11.5287L154.772 6.84875H157.932L153.552 13.8687L158.012 20.8087H154.792Z" fill="white"/>
</g>
<defs>
<clipPath id="clip0_1_570">
<rect width="258" height="26" fill="white" transform="translate(0 0.724121)"/>
</clipPath>
</defs>
</svg>
